<svg width="24" height="24" viewBox="0 0 24 24" fill="none" xmlns="http://www.w3.org/2000/svg">
<g id="ic:outline-badge" clip-path="url(#clip0_136_2391)">
<path id="Vector" d="M15 13.0001H19V14.6668H15V13.0001ZM15 16.3335H19V18.0001H15V16.3335Z" fill="#00A0FF"/>
<path id="Vector_2" d="M21.6 6.00012H15.6V2.40012C15.6 1.08012 14.52 0.00012207 13.2 0.00012207H10.8C9.48 0.00012207 8.4 1.08012 8.4 2.40012V6.00012H2.4C1.08 6.00012 0 7.08012 0 8.40012V21.6001C0 22.9201 1.08 24.0001 2.4 24.0001H21.6C22.92 24.0001 24 22.9201 24 21.6001V8.40012C24 7.08012 22.92 6.00012 21.6 6.00012ZM10.8 6.00012V2.40012H13.2V8.40012H10.8V6.00012ZM21.6 21.6001H2.4V8.40012H8.4C8.4 9.72012 9.48 10.8001 10.8 10.8001H13.2C14.52 10.8001 15.6 9.72012 15.6 8.40012H21.6V21.6001Z" fill="#00A0FF"/>
<path id="Vector_3" d="M8 16.0001C9.10457 16.0001 10 15.3285 10 14.5001C10 13.6717 9.10457 13.0001 8 13.0001C6.89543 13.0001 6 13.6717 6 14.5001C6 15.3285 6.89543 16.0001 8 16.0001Z" fill="#00A0FF"/>
<path id="Vector_4" d="M11.7733 17.3823C10.92 17.1335 9.98667 17.0001 9 17.0001C8.01333 17.0001 7.08 17.1335 6.22667 17.3823C5.48 17.5957 5 18.0757 5 18.6179V19.0001H13V18.6179C13 18.0757 12.52 17.5957 11.7733 17.3823Z" fill="#00A0FF"/>
</g>
<defs>
<clipPath id="clip0_136_2391">
<rect width="24" height="24" fill="white"/>
</clipPath>
</defs>
</svg>
