<svg width="24" height="24" viewBox="0 0 24 24" fill="none" xmlns="http://www.w3.org/2000/svg">
<g id="tdesign:money" clip-path="url(#clip0_162_3588)">
<path id="Vector" d="M12 12.5001C11.0717 12.5001 10.1815 12.8689 9.52513 13.5252C8.86875 14.1816 8.5 15.0719 8.5 16.0001C8.5 16.9284 8.86875 17.8186 9.52513 18.475C10.1815 19.1314 11.0717 19.5001 12 19.5001C12.9283 19.5001 13.8185 19.1314 14.4749 18.475C15.1313 17.8186 15.5 16.9284 15.5 16.0001C15.5 15.0719 15.1313 14.1816 14.4749 13.5252C13.8185 12.8689 12.9283 12.5001 12 12.5001ZM10.5 16.0001C10.5 15.6023 10.658 15.2208 10.9393 14.9395C11.2206 14.6582 11.6022 14.5001 12 14.5001C12.3978 14.5001 12.7794 14.6582 13.0607 14.9395C13.342 15.2208 13.5 15.6023 13.5 16.0001C13.5 16.3979 13.342 16.7795 13.0607 17.0608C12.7794 17.3421 12.3978 17.5001 12 17.5001C11.6022 17.5001 11.2206 17.3421 10.9393 17.0608C10.658 16.7795 10.5 16.3979 10.5 16.0001Z" fill="#00A0FF"/>
<path id="Vector_2" d="M17.526 5.11618L14.347 0.65918L2.658 9.99718L2.01 9.99018V10.0002H1.5V22.0002H22.5V10.0002H21.538L19.624 4.40118L17.526 5.11618ZM19.425 10.0002H9.397L16.866 7.45418L18.388 6.96718L19.425 10.0002ZM15.55 5.79018L7.84 8.41818L13.946 3.54018L15.55 5.79018ZM3.5 18.1692V13.8292C3.9219 13.6797 4.30511 13.4379 4.6217 13.1215C4.93828 12.8051 5.18027 12.422 5.33 12.0002H18.67C18.8197 12.4221 19.0616 12.8054 19.3782 13.122C19.6948 13.4386 20.078 13.6805 20.5 13.8302V18.1702C20.078 18.3198 19.6948 18.5618 19.3782 18.8784C19.0616 19.195 18.8197 19.5782 18.67 20.0002H5.332C5.18218 19.5779 4.93996 19.1943 4.62302 18.8775C4.30607 18.5608 3.9224 18.3188 3.5 18.1692Z" fill="#00A0FF"/>
</g>
<defs>
<clipPath id="clip0_162_3588">
<rect width="24" height="24" fill="white"/>
</clipPath>
</defs>
</svg>
