<svg width="24" height="25" viewBox="0 0 24 25" fill="none" xmlns="http://www.w3.org/2000/svg">
<g id="wpf:create-new" clip-path="url(#clip0_136_2373)">
<path id="Vector" d="M20.7119 0.663818C20.3657 0.663818 20.0362 0.820741 19.7593 1.09766L19.0965 1.73182L22.9901 5.62536L23.6251 4.96259C24.179 4.40874 24.179 3.58351 23.6251 3.02966L21.6922 1.09674C21.4153 0.819818 21.0581 0.663818 20.7119 0.663818ZM18.4614 2.28013L17.4516 3.11736L21.6054 7.2712L22.5285 6.34813L18.4614 2.28013ZM16.9033 3.78013L8.5679 12.0306C8.5257 12.0654 8.48677 12.1041 8.45159 12.146L8.39436 12.1746C8.29368 12.29 8.2241 12.4291 8.19221 12.5789L7.06698 16.5306C7.01875 16.687 7.01409 16.8536 7.05349 17.0125C7.0929 17.1713 7.17489 17.3164 7.29062 17.4322C7.40636 17.5479 7.55147 17.6299 7.71033 17.6693C7.86919 17.7087 8.0358 17.704 8.19221 17.6558L12.1439 16.5306C12.2751 16.4995 12.3976 16.4393 12.5025 16.3544C12.6073 16.2696 12.6917 16.1623 12.7494 16.0404L20.9427 7.93397L19.3845 6.26043V6.3472L18.2879 5.25059H18.3747L16.9033 3.78013ZM0.750361 4.41428C0.536511 4.45495 0.343916 4.56989 0.206595 4.7388C0.0692749 4.90771 -0.00393441 5.11971 -0.000100878 5.33736V23.7989C-0.000100878 24.0437 0.0971516 24.2785 0.270262 24.4516C0.443373 24.6247 0.678161 24.722 0.922976 24.722H19.3845C19.6293 24.722 19.8641 24.6247 20.0372 24.4516C20.2103 24.2785 20.3076 24.0437 20.3076 23.7989V13.645C20.3076 13.4002 20.2103 13.1654 20.0372 12.9923C19.8641 12.8192 19.6293 12.722 19.3845 12.722C19.1397 12.722 18.9049 12.8192 18.7318 12.9923C18.5587 13.1654 18.4614 13.4002 18.4614 13.645V22.8758H1.84605V6.26043H11.0768C11.3216 6.26043 11.5564 6.16318 11.7295 5.99007C11.9026 5.81696 11.9999 5.58217 11.9999 5.33736C11.9999 5.09254 11.9026 4.85775 11.7295 4.68464C11.5564 4.51153 11.3216 4.41428 11.0768 4.41428H0.922976C0.894069 4.41292 0.865114 4.41292 0.836207 4.41428C0.8073 4.41292 0.778345 4.41292 0.749438 4.41428H0.750361ZM9.80852 13.4724L11.0777 13.5583L11.1645 14.9429L9.89528 15.3177L9.40513 14.8284L9.80852 13.4724Z" fill="#00A0FF"/>
</g>
<defs>
<clipPath id="clip0_136_2373">
<rect width="24" height="24" fill="white" transform="translate(0 0.721924)"/>
</clipPath>
</defs>
</svg>
