<svg width="48" height="48" viewBox="0 0 48 48" fill="none" xmlns="http://www.w3.org/2000/svg">
<rect width="48" height="48" rx="24" transform="matrix(-1 0 0 1 48 0)" fill="white"/>
<path d="M22.3199 17.93C22.3199 18.12 22.2499 18.31 22.0999 18.46L16.5599 24L22.0999 29.54C22.3899 29.83 22.3899 30.31 22.0999 30.6C21.8099 30.89 21.3299 30.89 21.0399 30.6L14.9699 24.53C14.6799 24.24 14.6799 23.76 14.9699 23.47L21.0399 17.4C21.3299 17.11 21.8099 17.11 22.0999 17.4C22.2499 17.54 22.3199 17.74 22.3199 17.93Z" fill="#00A0FF"/>
<path d="M33.2499 24C33.2499 24.41 32.9099 24.75 32.4999 24.75H15.6699C15.2599 24.75 14.9199 24.41 14.9199 24C14.9199 23.59 15.2599 23.25 15.6699 23.25H32.4999C32.9099 23.25 33.2499 23.59 33.2499 24Z" fill="#00A0FF"/>
</svg>
