<svg width="48" height="48" viewBox="0 0 48 48" fill="none" xmlns="http://www.w3.org/2000/svg">
<rect width="48" height="48" rx="24" fill="white"/>
<path d="M25.6801 17.93C25.6801 18.12 25.7501 18.31 25.9001 18.46L31.4401 24L25.9001 29.54C25.6101 29.83 25.6101 30.31 25.9001 30.6C26.1901 30.89 26.6701 30.89 26.9601 30.6L33.0301 24.53C33.3201 24.24 33.3201 23.76 33.0301 23.47L26.9601 17.4C26.6701 17.11 26.1901 17.11 25.9001 17.4C25.7501 17.54 25.6801 17.74 25.6801 17.93Z" fill="#00A0FF"/>
<path d="M14.7501 24C14.7501 24.41 15.0901 24.75 15.5001 24.75H32.3301C32.7401 24.75 33.0801 24.41 33.0801 24C33.0801 23.59 32.7401 23.25 32.3301 23.25H15.5001C15.0901 23.25 14.7501 23.59 14.7501 24Z" fill="#00A0FF"/>
</svg>
